<?xml version="1.0" encoding="UTF-8" standalone="no"?>
<!-- Created with Inkscape (http://www.inkscape.org/) -->

<svg
   xmlns:svg="http://www.w3.org/2000/svg"
   xmlns="http://www.w3.org/2000/svg"
   version="1.1"
   width="500"
   height="400"
   id="svg2">
  <defs
     id="defs4" />
  <g
     transform="translate(-467.14285,-500.93362)"
     id="layer1">
    <path
       d="m 407.59656,195.44411 a 150.51273,150.51273 0 1 1 -301.02545,0 150.51273,150.51273 0 1 1 301.02545,0 z"
       transform="matrix(1.0402685,0,0,1.0402685,457.29556,531.44919)"
       id="path3658"
       style="fill:#f5a65f;fill-opacity:1;stroke:none" />
    <path
       d="m 261.78125,3.40625 c -37.8224,0.4629276 -78.29141,8.007256 -126.0625,35 -29.03846,15.201051 -50.806323,35.356482 -58.9375,64.8125 -5.130579,26.7596 -8.631557,53.85047 -15.875,80.1875 -10.911692,10.72073 -32.473174,23.42328 -46.1875,30.71875 -3.845332,2.04557 -6.3635107,4.82435 -8.125,6.59375 -6.82745153,7.23837 -7.9519289,18.71132 -5.53125,32.84375 16.802418,54.66048 28.879923,70.70356 40.53125,83.21875 5.889453,5.55807 13.392328,8.60181 25.90625,3.75 l 45,-26.78125 c 2.21393,-1.31781 2.62089,-0.50428 3.21875,0.53125 l 3.21875,4.59375 c 35.35825,70.92302 125.81392,101.12189 207.0625,67.34375 84.31467,-35.05283 126.83838,-125.73132 95.1875,-202.75 l 49.71875,-14.375 c 12.5064,-4.09008 26.60726,-3.85682 29.4375,-33.75 -0.72347,-11.65335 -4.1441,-23.37257 -10.75,-33.3125 C 471.6874,75.087452 443.6771,51.100783 438.75,46.0625 427.37818,50.656904 419.467,58.583649 396.4375,51.96875 360.59722,33.483333 354.05647,7.5658739 261.78125,3.40625 z M 337.5625,164.25 c 17.70658,-0.22658 33.10231,1.77882 49.3125,3 7.93555,0.59782 8.84885,5.1697 11.5625,9.3125 6.09993,12.13357 11.14324,25.10785 14.21875,39.59375 0.59591,6.54527 0.20107,13.01352 0.15625,19.59375 -0.89807,1.46657 -2.18433,2.49732 -3.78125,2.1875 -18.87627,-4.34275 -33.90453,-8.11408 -47.78125,-12.21875 -20.94674,-7.44117 -34.07209,-25.341 -87.5,-24.65625 -13.10172,-2.07923 -26.22101,-3.57018 -39.09375,-10 -6.07205,-1.8867 0.0291,-3.42724 1.9375,-5.59375 38.10639,-13.32777 57.93899,-17.169 65.9375,-17.75 12.9462,-2.40264 24.4073,-3.3328 35.03125,-3.46875 z M 219.5,195.34375 c 2.61211,0.0132 5.63686,0.23142 9.25,0.71875 6.67736,2.51114 13.0539,6.04482 20.03125,7.53125 5.56685,1.18594 10.76039,2.04031 21.75,8.1875 -5.24643,29.36582 -0.058,47.15038 25.71875,55.375 25.77675,8.22462 43.87221,-17.75204 46,-21.6875 1.0979,-2.03062 7.43036,-11.61929 10.59375,-12.0625 9.88217,-2.34046 34.64675,5.22433 51.96875,7.84375 5.00763,0.34597 6.55748,2.92623 8.21875,5.4375 -0.36549,14.9943 -7.50191,39.16628 -17.1875,57.84375 -14.9366,29.8345 -37.68503,54.07311 -78.78125,70.09375 -52.35183,17.26628 -104.63654,13.02602 -142.96875,-14.5 -9.28393,-6.66671 -18.15225,-15.15286 -27.1875,-24.4375 -12.28249,-12.62152 -22.36002,-27.61675 -28.46875,-47.4375 -3.48281,-11.00907 7.33825,-26.17484 32.0625,-46.09375 22.89286,-20.2289 51.30194,-39.305 62.5625,-46.34375 1.84647,-0.29123 3.94975,-0.48128 6.4375,-0.46875 z m 3.5,26.8125 c -7.59514,0.26194 -11.83785,6.49393 -11.78125,18.34375 0.0445,9.31812 1.30581,17.39417 10.375,17.53125 9.06919,0.13708 10.71875,-12.29888 10.71875,-18.375 0.3198,-10.95735 -1.71736,-17.76194 -9.3125,-17.5 z"
       transform="translate(467.14285,500.93362)"
       id="path3644"
       style="fill:#000000;stroke:none" />
    <path
       d="m 631.69643,753.61219 c -2.29961,-11.99016 25.41018,-33.47263 46.81211,-53.14632 3.26082,-2.99749 10.2952,-0.66484 12.38431,0.11061 6.67736,2.51114 13.05472,6.047 20.03207,7.53343 5.56685,1.18594 10.76403,2.03366 21.75364,8.18085 -5.24643,29.36582 -0.0625,47.13253 25.71429,55.35715 25.77675,8.22462 43.87233,-17.742 46.00012,-21.67746 1.0979,-2.03062 7.26506,-10.91504 10.42845,-11.35825 2.80213,-0.66365 7.06091,-1.55203 11.52125,0.0623 4.57334,1.65526 11.15495,3.31742 18.82642,4.27697 7.25911,0.90798 15.42365,1.68677 21.79519,3.51783 6.03818,0.41717 14.36366,4.27029 16.60714,7.14286 l -0.53571,-15.00001 -6.69643,1.51786 c -0.51926,2.77691 -3.17078,1.49293 -5.80357,0.98214 -18.87627,-4.34275 -33.26614,-6.78818 -47.14286,-10.89285 -20.94674,-7.44117 -34.07209,-25.32761 -87.5,-24.64286 -13.10172,-2.07923 -26.2344,-3.57018 -39.10714,-10 -6.68122,-2.07598 1.42823,-3.71324 2.41071,-6.25 l -69.55357,21.78571 -59.12401,77.13453 c 44.09453,76.12718 89.73018,96.00383 135.71125,103.27246 l 39.71436,-1.32845 c -11.85316,-3.61183 -13.6991,2.99722 -53.14311,-26.65935 -5.00073,-3.75988 -3.60745,-2.28522 -15.85369,-16.25968 -12.24624,-13.97445 -38.211,-54.70598 -45.25122,-93.65951 l 0,4e-5 z"
       id="path3649"
       style="opacity:0.5;fill:#000000;stroke:none" />
    <path
       d="m 700.51025,658.38956 c -29.54536,13.14609 -64.15348,-0.14809 -77.29957,-29.69345 -13.14597,-29.54511 0.1481,-64.15349 29.69346,-77.29957 29.54536,-13.14609 64.15359,0.14835 77.29957,29.69346 13.1462,29.54561 -0.14809,64.15347 -29.69346,77.29956 z"
       id="path2827"
       style="fill:#ffffff;stroke:none" />
    <path
       d="m 637.67971,587.73584 c 5.01496,-4.2424 30.78088,-11.74454 36.27312,13.96507 1.99862,9.35608 -6.0601,17.93291 -9.26366,23.66878 -7.58359,13.57813 11.21224,29.44901 11.21224,29.44901 0,0 -12.29998,-13.37639 -3.81161,-26.07112 7.80978,-11.67999 46.67252,-25.11675 37.14415,-46.18493 -18.25571,-40.36484 -74.82734,2.29833 -71.55424,5.17319 z"
       id="path8" />
    <rect
       width="5.2516413"
       height="65.133553"
       x="348.98514"
       y="783.54016"
       transform="matrix(0.91364141,-0.40652105,0.40652105,0.91364141,0,0)"
       id="rect10" />
  </g>
</svg>
