<?xml version="1.0" encoding="UTF-8" standalone="no"?>
<!-- Created with Inkscape (http://www.inkscape.org/) -->
<svg
   xmlns:dc="http://purl.org/dc/elements/1.1/"
   xmlns:cc="http://web.resource.org/cc/"
   xmlns:rdf="http://www.w3.org/1999/02/22-rdf-syntax-ns#"
   xmlns:svg="http://www.w3.org/2000/svg"
   xmlns="http://www.w3.org/2000/svg"
   xmlns:sodipodi="http://sodipodi.sourceforge.net/DTD/sodipodi-0.dtd"
   xmlns:inkscape="http://www.inkscape.org/namespaces/inkscape"
   id="svg2200"
   sodipodi:version="0.32"
   inkscape:version="0.45.1"
   width="600"
   height="577"
   version="1.0"
   sodipodi:docbase="C:\Documents and Settings\Munter\My Documents\Caféen\logo"
   sodipodi:docname="logo.svg"
   inkscape:output_extension="org.inkscape.output.svg.inkscape">
  <metadata
     id="metadata2205">
    <rdf:RDF>
      <cc:Work
         rdf:about="">
        <dc:format>image/svg+xml</dc:format>
        <dc:type
           rdf:resource="http://purl.org/dc/dcmitype/StillImage" />
      </cc:Work>
    </rdf:RDF>
  </metadata>
  <defs
     id="defs2203" />
  <sodipodi:namedview
     inkscape:window-height="721"
     inkscape:window-width="1024"
     inkscape:pageshadow="2"
     inkscape:pageopacity="0.0"
     guidetolerance="10.0"
     gridtolerance="10.0"
     objecttolerance="10.0"
     borderopacity="1.0"
     bordercolor="#666666"
     pagecolor="#ffffff"
     id="base"
     inkscape:zoom="1.8529384"
     inkscape:cx="307.04686"
     inkscape:cy="276.94766"
     inkscape:window-x="-4"
     inkscape:window-y="-4"
     inkscape:current-layer="svg2200" />
  <path
     style="fill:#000000;fill-rule:evenodd;stroke:none;stroke-width:1px;stroke-linecap:butt;stroke-linejoin:miter;stroke-opacity:1;fill-opacity:1"
     d="M 307.625 57.34375 C 196.33752 58.813018 93.00645 136.65435 70.5625 256.4375 C 78.303163 248.91743 80.142794 246.80172 87.375 242.125 C 117.37314 130.70195 217.70648 68.890504 311.40625 70.5 C 427.47805 72.495425 519.83727 155.48741 535.78125 264.84375 C 537.40885 256.16318 539.05642 246.73813 545.125 243.375 C 516.32092 126.59876 415.65675 58.231679 312.9375 57.34375 C 311.16732 57.328461 309.39147 57.320428 307.625 57.34375 z M 538.125 282.125 C 547.09092 426.48924 431.44531 528.02315 310.59375 527.875 C 189.47234 527.72689 127.19686 443.91282 107.40625 407 C 102.8259 411.32906 102.02216 413.2219 97.40625 416.96875 C 130.23182 477.75603 204.98363 541.57237 313.8125 541.375 C 422.64122 541.17761 554.92324 451.93447 551.5 291.78125 C 545.71718 289.89607 541.77795 286.14003 538.125 282.125 z M 80.9375 289.09375 C 74.470105 297.56409 73.056627 299.51667 67.46875 308.5 L 67.46875 321.46875 C 72.295049 314.75616 75.71395 309.56598 80.40625 304.46875 L 80.9375 289.09375 z M 87.4375 358.4375 C 84.918797 361.22567 81.650239 363.2496 75.5625 362.46875 C 78.150153 373.99612 81.429606 381.98007 84.71875 390 C 89.618062 387.03173 92.462421 384.06201 95.25 381.09375 C 92.210171 373.96954 89.764579 366.27446 87.4375 358.4375 z "
     id="path2209" />
  <path
     style="fill:#000000;fill-rule:evenodd;stroke:none;stroke-width:1px;stroke-linecap:butt;stroke-linejoin:miter;stroke-opacity:1;fill-opacity:1"
     d="M 569.3125 119.3125 C 566.52 119.3131 563.48411 119.74747 560.1875 120.6875 C 531.53033 128.8591 516.54847 145.07383 520 161.71875 C 520.94441 166.27314 521.8836 168.2895 528.03125 168.03125 C 534.1617 167.77371 547.72635 167.43901 547.78125 165.21875 C 547.84279 162.7288 541.26106 160.68779 535.625 160.09375 C 545.51289 152.50663 562.7938 143.50183 576.375 143.625 C 601.3551 147.75798 553.37551 192.56823 549.125 217.5625 C 544.9191 242.29447 562.62502 244.81249 562.625 244.8125 C 568.99966 243.7501 566.64633 239.28362 565.0625 234.625 C 564.39414 232.65917 566.40133 223.97887 571.9375 212.53125 C 579.27154 197.36597 589.0756 180.09259 592.84375 159.15625 C 596.18203 140.6083 588.86001 119.30827 569.3125 119.3125 z M 351.34375 206.5 C 347.4732 206.60996 340.93601 208.56398 339.46875 211.09375 C 338.65613 212.49482 337.90725 218.17617 336.21875 224.03125 C 334.08301 231.43717 330.18083 239.39501 331.09375 241.0625 C 331.93735 242.60335 340.05243 241.95789 344.875 233.5 C 353.07914 219.11145 354.70154 207.75324 354.03125 207.0625 C 353.62087 206.6396 352.63393 206.46335 351.34375 206.5 z M 497.4375 212.46875 C 495.26048 212.5882 492.81684 213.8447 490.1875 216.78125 C 476.10233 232.51213 462.51041 257.27905 452.625 280.46875 C 451.68938 278.1932 451.99337 271.73847 452.21875 270.375 C 455.3489 265.03216 466.03902 240.88178 465.9375 236.46875 C 465.8296 231.77866 458.6501 231.62308 454.40625 232.5 C 440.06303 235.4638 435.16488 264.71588 433.375 279.875 C 399.5986 326.45271 389.41226 305.76671 385.375 295.625 C 412.90325 281.41087 426.41046 255.86543 427.34375 243.21875 C 429.54075 213.44807 363.02084 239.54158 364.25 300.4375 C 334.80852 342.98031 319.78208 326.68065 317.4375 314.90625 C 353.5871 291.64337 360.22034 271.32735 357.34375 256.4375 C 353.77517 237.96576 294.6786 262.81206 296.15625 317.8125 C 289.84751 327.11302 285.85845 332.83984 276.1875 343.625 C 271.98173 338.87637 265.51899 333.79237 258.9375 330.40625 C 271.38487 288.24034 280.78733 271.42674 284.4375 248.78125 C 287.22927 231.46131 284.77083 213.46717 278.75 213 C 261.43218 211.6563 255.94805 288.13733 244.15625 322.5625 C 235.64764 323.44972 233.06367 326.62373 232.03125 328.8125 C 215.11778 364.63735 193.53803 365.91032 207.375 327.90625 C 209.74177 321.40577 210.19574 317.20711 210.125 314.96875 C 210.05426 312.73038 207.99511 310.99676 201.8125 304.34375 C 208.65304 298.38615 210.77727 295.90524 201.53125 288.46875 C 192.41552 281.13706 159.14359 308.30669 139.5 336.03125 C 119.72934 363.93518 94.688318 394.35484 71.40625 402.96875 C 53.264811 409.68072 39.623767 402.31482 38.59375 374.09375 C 36.484366 328.6028 101.63742 248.31487 111.4375 254.53125 C 121.3615 260.82624 92.812497 304.46876 92.8125 304.46875 L 90.40625 300.6875 C 71.816931 321.37074 54.539249 343.09623 68.8125 354.375 C 83.38395 364.35913 98.062922 341.21145 115.5 315.53125 C 133.06228 289.66666 147.14569 236.66008 116.5625 235.90625 C 85.70946 235.15242 34.029557 296.90031 15.125 343.84375 C -3.8730983 391.01949 11.602624 432.55755 48.03125 432.625 C 84.729718 432.69245 117.31297 389.72872 133.03125 364.09375 C 134.01839 376.51232 146.33572 390.17592 155.875 394.0625 C 165.1824 397.8546 177.46466 374.29305 188.125 351.3125 C 183.97195 376.15742 191.71699 388.41436 200.21875 388.09375 C 209.59104 387.74031 216.44996 380.80469 232.15625 347.9375 C 232.62158 348.85264 234.98411 355.63795 239.09375 355.90625 C 224.37301 404.23503 241.78069 437.75584 253.1875 439.09375 C 264.06178 440.36918 297.5275 390.50818 283.40625 355.09375 C 289.72145 348.01647 295.90517 339.15449 299.71875 331.6875 C 309.75184 363.09937 344.48407 356.81921 367.6875 312.84375 C 384.15151 350.85185 419.24555 325.63157 436.71875 291.65625 C 444.3972 310.40351 450.24448 313.61039 455.28125 309.84375 C 464.07881 303.26471 470.93409 273.22353 484.59375 251.84375 C 474.52785 276.64698 474.16292 302.10074 488.125 305.8125 C 502.33895 309.59124 515.26985 282.98095 528.75 253.59375 C 528.33287 252.20201 527.25902 247.4733 525.3125 243.6875 C 513.78475 262.41796 504.97071 279.75531 498.1875 275.5 C 491.59679 271.36546 507.03395 233.94341 508.59375 229.40625 C 509.74774 226.0495 505.21256 212.04213 497.4375 212.46875 z M 409.09375 245.71875 C 415.14818 245.61619 410.07009 264.71983 383.5625 284.96875 C 385.85117 274.31122 390.00494 261.40905 403.25 249.0625 C 405.70807 246.77118 407.69657 245.74242 409.09375 245.71875 z M 548.6875 248.09375 C 546.41051 248.21171 544.39547 249.85523 543.1875 254 C 538.96496 268.48843 540.02548 272.42363 540.75 276.65625 C 541.48083 280.92561 553.8487 288.62102 558.03125 286.125 C 562.09992 283.69692 563.36143 265.30239 562.625 260.75 C 562.09164 257.45287 554.50647 247.7923 548.6875 248.09375 z M 341 264.9375 C 347.05443 264.83494 341.9451 283.93858 315.4375 304.1875 C 317.72617 293.52997 321.91118 280.65906 335.15625 268.3125 C 337.61432 266.02118 339.60282 264.96117 341 264.9375 z M 192.9375 312.28125 C 186.4613 329.48367 174.00122 353.67387 166.21875 364.90625 C 151.39985 386.29427 143.71702 360.17401 161.625 341.15625 C 179.6603 322.00328 176.20732 324.76143 192.9375 312.28125 z M 253.125 362.46875 C 256.49801 364.08781 267.15625 363.28125 267.15625 363.28125 C 274.44198 394.31303 262.06994 414.22519 259.84375 414.5625 C 257.88093 414.85988 245.9742 397.27833 253.125 362.46875 z "
     id="path2213" />
</svg>
