<?xml version="1.0" encoding="utf-8"?>
<!-- Generator: Adobe Illustrator 15.0.2, SVG Export Plug-In . SVG Version: 6.00 Build 0)  -->
<!DOCTYPE svg PUBLIC "-//W3C//DTD SVG 1.1//EN" "http://www.w3.org/Graphics/SVG/1.1/DTD/svg11.dtd">
<svg version="1.1" id="Layer_1" xmlns="http://www.w3.org/2000/svg" xmlns:xlink="http://www.w3.org/1999/xlink" x="0px" y="0px"
	 width="355.001px" height="113.39px" viewBox="0 0 355.001 113.39" enable-background="new 0 0 355.001 113.39"
	 xml:space="preserve">
<rect width="355.001" height="113.39"/>
<path fill="#20A0E9" d="M117.815,47.775l-0.046-0.149l-0.004-0.01l-1.724-5.587c-0.082-0.279-0.362-0.48-0.681-0.48h-11.933
	c-0.319,0-0.602,0.201-0.681,0.48l-1.738,5.597l-6.316,20.333l-6.443-8.726c0,0-0.53-0.867-1.245-0.867
	c-0.48,0-0.601-0.926,0.055-0.957c0.083-0.006,0.148-0.006,0.203-0.01c4.017-0.682,5.708-2.582,6.064-5.702
	c0.049-0.437,0.073-0.898,0.073-1.382c0-0.76-0.161-1.755-0.321-2.541c-0.004-0.016-0.016-0.075-0.033-0.149
	c-0.036-0.166-0.09-0.415-0.115-0.513c-0.579-2.313-2.36-3.763-4.402-4.603c-0.558-0.227-1.16-0.414-1.814-0.555
	c-1.302-0.286-2.781-0.406-4.406-0.406H68.606c-0.403,0-0.724,0.28-0.724,0.642v5.435v23.509c0,0.363,0.282,0.604,0.686,0.604h6.778
	c0.4,0,0.641-0.24,0.641-0.604V60.961h4.891l7.33,10.376c0.121,0.203,0.482,0.401,0.923,0.401h5.731h0.052h0.421h5.967
	c0.361,0,0.682-0.282,0.763-0.641l1.205-4.543h12.121l1.195,4.463c0.081,0.359,0.443,0.721,0.842,0.721h6.982
	c0.361,0,0.642-0.24,0.642-0.522c0-0.039,0-0.081-0.042-0.118L117.815,47.775z M85.134,51.898v0.06c0,1.793-0.415,2.754-1.48,3.396
	c-0.699,0.419-1.679,0.618-3.014,0.618h-2.929h-1.724v-8.155v-0.191h5c0.498,0.017,0.957,0.072,1.354,0.149
	c0.514,0.105,0.955,0.253,1.313,0.47c1.065,0.64,1.48,1.8,1.48,3.592V51.898z M104.758,60.961l3.539-13.335h2.017l3.577,13.335
	H104.758z"/>
<path fill="#FFFFFF" d="M311.606,40.275c0-0.719-0.562-1.361-1.44-1.361H308.4v4.334h0.967V41.57h0.462l0.786,1.678h1.104
	l-0.913-1.824C311.225,41.256,311.606,40.872,311.606,40.275 M310.039,40.839h-0.672v-1.124h0.672c0.364,0,0.601,0.255,0.601,0.56
	C310.64,40.579,310.402,40.839,310.039,40.839"/>
<path fill="#FFFFFF" d="M309.883,37.011c-2.25,0-4.074,1.822-4.074,4.074c0,2.253,1.824,4.075,4.074,4.075
	c2.253,0,4.076-1.822,4.076-4.075C313.959,38.833,312.136,37.011,309.883,37.011 M309.883,44.249c-1.755,0-3.106-1.35-3.106-3.164
	c0-1.811,1.352-3.163,3.106-3.163c1.758,0,3.109,1.352,3.109,3.163C312.992,42.898,311.641,44.249,309.883,44.249"/>
<path fill="#FFFFFF" d="M197.182,53.483c-3.289-0.52-5.938-0.682-5.938-3.289c0-1.079,0.376-1.777,0.99-2.231
	c0.094-0.067,0.197-0.129,0.302-0.188c0.101-0.054,0.207-0.105,0.316-0.15c0.828-0.347,1.9-0.439,3.047-0.439
	c1.511,0,2.926,0.175,4.396,0.439c1.186,0.212,2.405,0.478,3.746,0.764c0.04,0.042,0.12,0.042,0.161,0.042
	c0.052,0,0.097-0.019,0.143-0.03c0.146-0.03,0.273-0.096,0.369-0.197c0.116-0.124,0.19-0.285,0.212-0.456l0.024-0.123l0.837-3.853
	v-0.243c0-0.522-0.359-0.842-0.921-1.001c-0.923-0.241-5.056-1.443-9.751-1.443c-5.636,0-10.099,1.84-11.519,6.54
	c-0.015,0.054-0.035,0.1-0.05,0.15c-0.02,0.066-0.042,0.125-0.061,0.193c-0.245,0.929-0.388,1.954-0.388,3.111
	c0,6.979,5.537,8.304,9.51,8.983c3.251,0.562,5.816,0.727,5.816,3.454c0,2.445-1.926,3.089-4.894,3.089
	c-3.33,0-7.423-1.167-8.306-1.367c-0.199-0.039-0.361-0.079-0.522-0.079c-0.4,0-0.639,0.201-0.72,0.761l-0.6,3.53v0.201
	c0,0.442,0.238,0.844,0.719,1.003c0.644,0.242,5.217,1.524,10.953,1.524c6.217,0,11.713-2.285,11.713-9.185
	C206.769,55.29,201.756,54.207,197.182,53.483"/>
<path fill="#20A0E9" d="M152.916,47.668c-0.006-0.014-0.012-0.027-0.021-0.043c-1.766-3.884-5.372-6.076-12.06-6.076h-13.36
	c-0.361,0-0.68,0.28-0.68,0.642v5.434v0.15v23.322c0,0.358,0.319,0.641,0.68,0.641h13.36c10.993,0,13.518-6.161,13.518-15.386
	c0-3.377-0.381-6.266-1.393-8.577C152.946,47.742,152.932,47.704,152.916,47.668 M139.993,66.404h-5.094V47.625h4.383h1.232
	c0.568,0,1.171,0.102,1.428,0.15c3.231,0.633,4.109,3.176,4.109,9.335C146.051,64.369,144.848,66.404,139.993,66.404"/>
<path fill="#20A0E9" d="M61.389,41.557H41.725c-0.4,0-0.683,0.238-0.683,0.603v4.83c0,0.233,0.153,0.442,0.389,0.541
	c0.088,0.035,0.187,0.061,0.294,0.085h11.958l0.002,0.009v23.51c0,0.363,0.282,0.604,0.683,0.604h7.021
	c0.401,0,0.682-0.24,0.682-0.604v-23.51V42.16C62.071,41.795,61.787,41.557,61.389,41.557"/>
<path fill="#20A0E9" d="M178.969,41.549h-20.301c-0.4,0-0.721,0.28-0.721,0.642v5.435v0.149v23.323c0,0.358,0.321,0.641,0.721,0.641
	h20.338c0.364,0,0.643-0.24,0.643-0.604v-4.492c0-0.359-0.278-0.603-0.643-0.603h-12.958v-6.497h12.316
	c0.401,0,0.681-0.242,0.681-0.602v-4.574c0-0.402-0.279-0.56-0.681-0.56h-12.316v-6.182v-0.01h12.921
	c0.105,0,0.203-0.02,0.291-0.049c0.237-0.09,0.389-0.287,0.389-0.552v-4.864C179.648,41.787,179.37,41.549,178.969,41.549"/>
<path fill="#FFFFFF" d="M236.309,41.549h-6.778c-0.404,0-0.644,0.238-0.644,0.602v5.475v6.182h-0.04h-10.062v-6.182v-5.475
	c0-0.364-0.281-0.602-0.684-0.602h-6.778c-0.4,0-0.641,0.238-0.641,0.602v5.475v23.509c0,0.363,0.281,0.604,0.681,0.604h6.78
	c0.4,0,0.642-0.24,0.642-0.604V59.543h10.062v11.592c0,0.363,0.279,0.604,0.684,0.604h6.778c0.4,0,0.68-0.24,0.68-0.604V47.626
	v-5.475C236.988,41.787,236.709,41.549,236.309,41.549"/>
<path fill="#FFFFFF" d="M301.619,41.549h-19.66c-0.399,0-0.683,0.238-0.683,0.602v5.475v23.509c0,0.363,0.283,0.603,0.68,0.603
	h7.022c0.401,0,0.684-0.239,0.684-0.603V47.626v-0.007v-0.003h11.957c0.103,0,0.198-0.02,0.282-0.049
	c0.245-0.097,0.402-0.314,0.402-0.552v-4.864C302.304,41.787,302.022,41.549,301.619,41.549"/>
<path fill="#FFFFFF" d="M276.756,41.549h-19.337c-0.399,0-0.72,0.28-0.72,0.642v5.435v23.472c0,0.358,0.32,0.641,0.72,0.641h6.661
	c0.399,0,0.721-0.282,0.721-0.641V59.503h10.064c0.401,0,0.681-0.24,0.681-0.602v-4.495c0-0.359-0.279-0.599-0.681-0.599h-10.064
	v-6.182v-0.01h11.955c0.104,0,0.197-0.02,0.28-0.049c0.244-0.097,0.401-0.314,0.401-0.552v-4.864
	C277.438,41.787,277.158,41.549,276.756,41.549"/>
<path fill="#FFFFFF" d="M250.213,41.549h-6.781c-0.4,0-0.641,0.238-0.641,0.602v5.475v23.509c0,0.363,0.279,0.604,0.683,0.604h6.778
	c0.403,0,0.643-0.24,0.643-0.604V47.626v-5.475C250.895,41.787,250.614,41.549,250.213,41.549"/>
</svg>
